<?xml version="1.0" standalone="no"?>
<!DOCTYPE svg PUBLIC "-//W3C//DTD SVG 20010904//EN"
 "http://www.w3.org/TR/2001/REC-SVG-20010904/DTD/svg10.dtd">
<svg version="1.0" xmlns="http://www.w3.org/2000/svg"
 width="478.000000pt" height="522.000000pt" viewBox="0 0 478.000000 522.000000"
 preserveAspectRatio="xMidYMid meet">

<g transform="translate(0.000000,522.000000) scale(0.100000,-0.100000)"
fill="#000000" stroke="none">
<path d="M2240 5069 c-170 -22 -341 -76 -490 -156 -82 -44 -214 -136 -240
-168 -11 -13 -76 -15 -486 -15 l-474 0 0 -2070 0 -2070 1815 0 1815 0 0 2070
0 2069 -407 3 -408 3 -100 69 c-105 73 -275 158 -385 194 -205 67 -456 95
-640 71z m510 -64 c255 -63 481 -179 664 -339 233 -204 404 -491 475 -798 58
-246 83 -536 62 -712 -17 -146 -54 -216 -113 -216 -28 0 -37 13 -18 25 53 33
77 230 74 610 -1 123 -11 179 -60 345 -90 307 -243 571 -421 729 -75 66 -213
161 -290 199 -233 118 -630 168 -891 113 -286 -60 -491 -176 -647 -365 -44
-53 -82 -102 -84 -107 -1 -6 20 7 48 28 52 39 136 77 152 67 5 -2 0 -22 -11
-42 -28 -51 -26 -71 3 -44 22 21 47 29 47 15 0 -3 -11 -20 -24 -38 -13 -17
-40 -60 -58 -96 -45 -83 -88 -149 -99 -149 -12 0 -11 5 6 47 8 20 13 38 11 40
-2 2 -19 -9 -37 -25 -53 -45 -69 -47 -82 -12 -15 40 -39 38 -86 -7 -86 -85
-128 -244 -170 -653 l-7 -65 -12 65 c-7 36 -16 121 -19 190 l-6 125 -20 -65
c-15 -49 -20 -94 -20 -185 0 -112 19 -225 69 -410 4 -17 2 -16 -15 5 -38 46
-89 154 -107 223 -9 38 -21 66 -27 64 -19 -6 -56 -204 -46 -242 19 -68 94
-158 311 -370 198 -193 295 -295 232 -244 -10 8 -64 42 -119 74 -254 148 -350
224 -431 347 -71 107 -83 141 -90 270 -8 135 4 236 47 393 72 262 186 472 387
712 221 266 434 410 719 489 147 40 181 43 398 39 174 -3 214 -7 305 -30z
m-1459 -471 c-23 -26 -41 -51 -41 -55 0 -5 -7 -9 -16 -9 -11 0 -3 13 23 41 21
22 37 45 35 51 -1 5 2 7 7 4 5 -4 12 -2 16 4 3 5 9 10 11 10 3 0 -13 -21 -35
-46z m2729 -1569 l0 -1615 -474 0 -474 0 -32 78 c-19 44 -34 98 -35 127 -2 45
-7 53 -45 86 -52 45 -191 119 -324 174 -98 39 -100 41 -139 103 -45 72 -48
101 -18 159 33 65 37 66 126 27 44 -20 106 -45 139 -55 74 -24 112 -15 181 42
54 45 212 163 257 192 55 34 158 140 187 190 41 73 68 156 86 272 9 54 17 100
19 102 1 2 26 -7 53 -19 l51 -23 7 -115 c10 -148 1 -341 -24 -505 -28 -185
-126 -472 -182 -531 -14 -15 -17 -24 -9 -29 13 -8 52 23 45 35 -3 4 2 14 11
21 84 69 250 452 293 674 5 28 16 84 24 125 13 63 57 402 57 438 0 7 11 9 30
6 66 -14 131 101 150 262 9 80 8 133 -5 359 -7 109 -46 307 -85 430 -69 218
-183 424 -313 565 l-38 40 241 0 240 0 0 -1615z m-2800 1475 c-6 -11 -13 -20
-16 -20 -2 0 0 9 6 20 6 11 13 20 16 20 2 0 0 -9 -6 -20z m860 -60 c-6 -11
-13 -20 -16 -20 -2 0 0 9 6 20 6 11 13 20 16 20 2 0 0 -9 -6 -20z m-273 -49
c39 -31 42 -59 10 -97 l-24 -27 -56 26 c-31 14 -57 31 -57 38 0 18 39 78 58
88 18 10 23 9 69 -28z m-671 -6 c-1 -8 -5 -17 -8 -21 -5 -4 -4 16 1 34 3 9 9
-1 7 -13z m1295 -12 c-12 -20 -14 -14 -5 12 4 9 9 14 11 11 3 -2 0 -13 -6 -23z
m-400 -30 c-11 -21 -20 -35 -21 -31 0 12 33 78 38 74 2 -2 -6 -21 -17 -43z
m1648 -68 c18 -31 41 -79 52 -108 23 -56 61 -250 49 -242 -5 3 -11 23 -15 45
-4 22 -10 40 -15 40 -4 0 -17 35 -29 78 -11 42 -34 113 -51 157 -32 87 -32 85
-26 85 2 0 18 -25 35 -55z m-1288 -16 c-11 -30 -20 -49 -20 -43 -1 15 30 106
35 101 2 -2 -5 -28 -15 -58z m-488 26 c7 -16 -8 -29 -23 -20 -10 6 -2 35 10
35 4 0 10 -7 13 -15z m80 -58 c-14 -37 -29 -65 -31 -62 -3 3 7 34 23 70 36 85
43 79 8 -8z m212 -31 c27 -21 28 -26 17 -50 -9 -21 -18 -26 -47 -26 -21 0 -38
6 -41 14 -6 16 21 86 33 86 4 0 21 -11 38 -24z m149 -95 c-10 -33 -19 -59 -21
-57 -3 2 3 32 13 65 9 34 19 60 21 58 2 -3 -4 -32 -13 -66z m1133 37 c-3 -7
-5 -2 -5 12 0 14 2 19 5 13 2 -7 2 -19 0 -25z m202 -47 c13 -41 14 -81 2 -81
-5 0 -15 26 -21 57 -7 32 -15 64 -18 73 -4 13 -3 13 10 0 9 -8 20 -30 27 -49z
m-1389 25 c0 -17 -14 -29 -23 -20 -8 8 3 34 14 34 5 0 9 -6 9 -14z m-368 -68
c-11 -35 -26 -88 -32 -118 -7 -30 -15 -59 -18 -64 -2 -4 -6 -29 -8 -54 -2 -25
-7 -48 -10 -51 -4 -3 -3 17 0 44 l7 50 -26 -30 c-23 -26 -23 -24 4 17 17 25
38 77 47 115 17 76 46 164 52 158 2 -2 -5 -32 -16 -67z m1713 5 c7 -46 5 -49
-25 -33 -25 13 -38 79 -19 91 20 12 36 -9 44 -58z m-148 5 c-2 -13 -4 -5 -4
17 -1 22 1 32 4 23 2 -10 2 -28 0 -40z m-932 -3 c0 -28 -29 -25 -33 3 -3 19 0
23 15 20 10 -2 18 -12 18 -23z m942 -137 c-2 -18 -4 -6 -4 27 0 33 2 48 4 33
2 -15 2 -42 0 -60z m-202 53 c6 -10 -21 -41 -35 -41 -14 0 -21 17 -14 34 7 17
39 22 49 7z m-988 -33 c-3 -8 -6 -5 -6 6 -1 11 2 17 5 13 3 -3 4 -12 1 -19z
m-10 -40 c-3 -8 -6 -5 -6 6 -1 11 2 17 5 13 3 -3 4 -12 1 -19z m673 -287 c-6
-47 -13 -87 -15 -89 -5 -5 -75 42 -75 51 0 4 11 24 24 45 12 20 34 65 47 99
l24 61 3 -41 c2 -22 -2 -79 -8 -126z m-1218 102 c-22 -27 -57 -64 -78 -83 -21
-19 -4 2 37 47 81 91 104 110 41 36z m883 15 c-17 -54 -38 -88 -56 -88 -25 0
-24 12 2 36 12 10 27 31 35 46 17 34 28 37 19 6z m-788 -25 c-3 -10 -5 -4 -5
12 0 17 2 24 5 18 2 -7 2 -21 0 -30z m1648 -122 c-7 -86 -9 -91 -30 -91 -23 0
-23 1 -9 48 8 26 20 69 25 95 16 72 22 50 14 -52z m-1658 -13 c-2 -18 -4 -4
-4 32 0 36 2 50 4 33 2 -18 2 -48 0 -65z m963 51 c-7 -11 -14 -18 -17 -15 -3
3 0 12 7 21 18 21 23 19 10 -6z m-220 -13 c0 -18 -42 -98 -54 -102 -8 -3 -12
-12 -9 -20 4 -11 -8 -14 -58 -14 l-62 0 64 69 c47 51 71 69 92 70 15 0 27 -1
27 -3z m-827 -72 c18 -10 39 -26 47 -38 14 -20 14 -20 21 4 4 14 7 -14 8 -65
l0 -90 -32 36 c-41 46 -99 89 -121 89 -15 0 -76 -82 -76 -103 0 -5 18 7 40 27
48 44 80 48 80 10 0 -31 15 -61 48 -96 22 -24 24 -30 13 -57 -7 -16 -11 -38
-8 -48 3 -13 11 -2 29 37 l26 55 7 -120 c4 -66 11 -142 15 -170 9 -57 3 -65
-50 -65 -51 0 -79 23 -173 140 -102 126 -112 156 -92 253 20 97 55 186 79 202
27 20 99 19 139 -1z m961 -24 c-17 -27 -44 -48 -44 -33 0 7 51 63 57 63 2 0
-4 -13 -13 -30z m94 -34 c-24 -37 -33 -43 -42 -27 -3 4 9 24 27 43 39 42 47
33 15 -16z m597 24 c-4 -12 -9 -19 -12 -17 -3 3 -2 15 2 27 4 12 9 19 12 17 3
-3 2 -15 -2 -27z m-480 0 c24 -9 26 -14 20 -43 -19 -89 -77 -225 -100 -233
-26 -10 -16 -24 18 -24 51 1 102 24 159 71 54 46 55 40 5 -23 l-29 -38 24 0
c51 1 101 20 146 56 l47 39 -33 -43 c-19 -23 -30 -42 -25 -42 18 0 51 31 127
119 44 50 82 89 84 86 8 -8 -67 -154 -86 -165 -16 -11 -16 -11 1 -6 26 8 22 0
-30 -60 -27 -31 -48 -61 -48 -67 0 -7 -5 -12 -12 -12 -6 0 -15 -4 -20 -9 -5
-5 -2 -6 6 -1 10 6 11 2 5 -16 -5 -13 -9 -50 -9 -83 0 -75 17 -90 70 -61 29
15 44 35 71 94 20 42 36 90 36 108 0 27 4 32 32 36 59 9 80 -37 55 -126 -13
-47 -6 -59 14 -21 22 42 30 12 13 -48 -8 -29 -27 -114 -41 -188 -15 -74 -39
-162 -54 -195 -35 -77 -119 -167 -240 -257 -53 -40 -121 -93 -151 -119 -157
-133 -181 -133 -443 9 -161 87 -169 94 -189 165 -28 97 -67 289 -88 436 -11
73 -22 149 -25 170 -3 20 14 -20 38 -89 65 -185 104 -284 157 -395 62 -128 93
-168 39 -50 -41 90 -75 184 -122 345 -26 89 -77 340 -77 381 0 22 2 21 31 -14
17 -20 37 -37 44 -37 8 0 17 -5 21 -12 4 -6 3 -8 -3 -5 -6 4 -19 0 -29 -8 -18
-14 -17 -15 8 -9 14 3 36 1 47 -6 l22 -11 -23 -20 c-22 -20 -22 -20 -1 -10 37
19 55 14 47 -11 -6 -19 -4 -21 7 -12 8 6 20 13 28 16 7 2 -9 17 -38 35 -28 18
-51 37 -51 43 0 7 9 5 22 -4 36 -26 148 -18 148 9 0 7 6 15 13 18 22 8 50 104
43 148 -4 24 -2 39 4 39 18 0 87 -76 115 -128 15 -28 34 -53 43 -57 12 -5 14
2 8 41 -6 47 -6 47 14 29 30 -27 25 -3 -15 70 -19 36 -33 65 -30 65 2 0 21
-10 42 -21 l38 -22 -30 26 c-16 14 -45 34 -62 44 -31 17 -42 31 -25 34 37 7
60 4 82 -9 16 -10 21 -11 13 -2 -9 10 -6 22 19 57 32 47 37 48 103 23z m550
-102 c-11 -77 -21 -97 -52 -103 -75 -16 -73 -16 -65 2 53 120 76 152 110 153
11 0 12 -12 7 -52z m-2594 -88 c24 -99 146 -250 287 -355 73 -55 79 -61 67
-80 -7 -11 -19 -39 -25 -61 -15 -49 -2 -97 63 -233 l39 -84 -33 -26 c-61 -46
-109 -105 -109 -132 0 -23 47 -197 64 -239 5 -13 -8 -18 -71 -28 -53 -8 -89
-20 -117 -39 -78 -55 -222 -251 -247 -336 -5 -19 -5 -45 1 -65 7 -26 5 -40 -7
-58 -15 -24 -14 -87 2 -141 7 -22 5 -23 -44 -23 l-51 0 0 984 c0 541 2 990 5
998 4 9 24 12 71 11 53 -1 66 1 72 15 4 12 9 3 15 -28 5 -25 13 -61 18 -80z
m144 90 c2 -12 1 -20 -2 -16 -4 4 -8 16 -10 28 -4 28 6 18 12 -12z m23 -32
c-2 -7 2 -12 9 -11 7 2 10 -4 6 -12 -5 -13 -7 -13 -18 2 -7 10 -11 21 -9 25 8
12 14 9 12 -4z m2496 -76 c-4 -26 -8 -51 -8 -57 -1 -5 -8 -10 -16 -10 -18 0
-16 31 8 94 19 52 27 39 16 -27z m-1214 31 c0 -59 12 -104 26 -99 21 8 43 -4
37 -20 -9 -23 15 -42 50 -39 46 3 68 15 63 34 -8 24 6 42 24 31 12 -8 12 -10
-4 -10 -13 0 -16 -5 -12 -17 8 -20 -37 -63 -66 -63 -10 0 -35 16 -55 35 -40
39 -45 42 -37 20 12 -31 -24 -4 -40 30 -33 68 -33 125 -1 125 10 0 15 -10 15
-27z m89 -6 c0 -8 -2 -8 -6 1 -4 10 -8 10 -21 0 -15 -12 -16 -11 -3 4 14 19
32 15 30 -5z m-592 -9 c-3 -8 -6 -5 -6 6 -1 11 2 17 5 13 3 -3 4 -12 1 -19z
m-687 -38 c12 -23 12 -24 -3 -11 -10 7 -17 20 -17 29 0 18 3 16 20 -18z m1237
8 c-3 -8 -6 -5 -6 6 -1 11 2 17 5 13 3 -3 4 -12 1 -19z m1033 -3 c0 -7 -101
-57 -107 -52 -5 5 43 41 67 50 19 7 40 8 40 2z m435 -72 c-4 -43 -14 -94 -23
-113 l-16 -35 -4 55 c-2 40 3 70 20 112 12 32 24 58 27 58 2 0 0 -35 -4 -77z
m-1346 54 c-2 -1 -13 -9 -24 -17 -19 -14 -19 -14 -6 3 7 9 18 17 24 17 6 0 8
-1 6 -3z m1033 -124 c-11 -21 -23 -47 -26 -57 -4 -10 -8 -17 -11 -14 -4 3 0
21 21 96 2 6 11 12 19 12 14 0 14 -5 -3 -37z m-236 -5 c4 -6 -1 -17 -12 -25
-10 -7 -19 -19 -19 -26 0 -7 -13 -25 -29 -40 -16 -15 -23 -27 -17 -27 7 0 9
-6 5 -12 -3 -7 7 2 23 20 25 28 31 31 36 18 9 -22 -40 -76 -69 -76 -20 0 -22
5 -22 44 0 33 3 43 13 40 15 -6 55 41 55 66 0 29 22 40 36 18z m284 -173 c0
-51 -2 -55 -23 -55 -12 0 -33 7 -46 16 l-23 16 38 39 c21 22 42 39 46 39 4 0
8 -25 8 -55z m-2296 -106 c-24 -27 -21 -72 10 -149 15 -36 29 -85 32 -110 5
-42 2 -37 -41 55 -38 81 -46 108 -42 141 5 45 34 97 49 88 5 -3 2 -14 -8 -25z
m585 -116 c37 -153 120 -387 178 -505 18 -37 33 -70 33 -72 0 -3 -34 10 -75
28 -107 49 -208 70 -284 58 -34 -5 -61 -7 -61 -5 0 3 14 25 32 50 64 94 107
223 140 426 7 37 15 67 19 67 3 0 12 -21 18 -47z m-120 -249 c-7 -27 -23 -71
-35 -98 -25 -54 -24 -54 -39 36 -5 34 -3 39 30 60 19 13 38 31 41 41 12 38 14
7 3 -39z m-379 -108 c0 -12 -14 5 -31 39 -8 16 -6 15 10 -4 12 -13 21 -28 21
-35z m740 -81 c18 -33 54 -93 81 -133 46 -70 60 -100 40 -88 -25 16 -161 254
-161 282 0 12 6 2 40 -61z m-1019 -310 c-35 -59 -61 -162 -61 -238 0 -40 10
-129 22 -199 11 -71 19 -130 17 -132 -9 -10 -161 -8 -170 1 -9 9 -3 63 7 63 2
0 13 -5 24 -12 26 -17 31 -8 20 33 -6 18 -10 68 -10 109 0 121 44 255 122 368
35 50 59 57 29 7z m-41 6 c-5 -11 -15 -23 -20 -26 -19 -11 -57 -99 -80 -179
-18 -66 -21 -99 -18 -192 2 -68 -1 -110 -6 -106 -10 6 -57 57 -89 98 -27 35
-24 81 9 146 46 90 82 141 163 230 47 52 58 59 41 29z m1064 -172 c134 -32
272 -106 352 -191 41 -43 154 -201 154 -215 0 -6 -1339 -8 -1397 -3 -1 0 20
45 48 100 30 59 56 100 65 100 8 0 56 21 107 46 204 102 434 182 531 183 27 1
90 -9 140 -20z m1296 -103 c0 -2 -8 -10 -17 -17 -16 -13 -17 -12 -4 4 13 16
21 21 21 13z m-460 -94 c0 -5 -7 -17 -15 -28 -14 -18 -14 -17 -4 9 12 27 19
34 19 19z m-2095 -88 c26 -34 26 -36 11 -69 -9 -18 -16 -38 -16 -45 0 -6 -6
-10 -12 -8 -30 10 -48 158 -19 158 5 0 21 -16 36 -36z m2146 -55 c16 -34 29
-62 27 -64 -2 -2 -16 -5 -33 -7 l-30 -3 -3 68 c-2 37 -1 67 2 67 3 0 20 -27
37 -61z m-1480 -431 c36 -109 66 -198 65 -199 0 0 -23 -2 -50 -3 l-49 -3 -20
49 c-21 48 -21 48 -69 49 -26 1 -58 2 -70 3 -33 3 -46 -10 -53 -55 -4 -21 -10
-39 -13 -40 -59 -7 -94 -5 -98 6 -3 7 7 46 21 86 14 41 42 121 61 179 19 58
37 111 39 118 3 9 27 12 87 10 l83 -3 66 -197z m273 125 c28 -40 66 -94 84
-120 l32 -47 0 122 0 122 55 0 55 0 -2 -201 -3 -202 -55 0 -55 0 -85 123 -85
122 -3 -118 c-2 -72 -7 -121 -14 -125 -6 -4 -27 -6 -47 -4 l-36 2 -3 202 -2
202 57 -3 57 -3 50 -72z m406 -123 c0 -153 -3 -200 -12 -201 -18 -2 -71 -2
-85 0 -10 1 -13 48 -13 201 l0 200 55 0 55 0 0 -200z m263 81 l52 -115 54 117
55 117 68 0 68 0 0 -198 c0 -109 -2 -201 -4 -203 -2 -2 -26 -3 -53 -1 l-48 4
1 123 c0 69 -2 122 -6 120 -4 -2 -24 -45 -45 -95 l-39 -90 -49 0 -48 0 -42 88
-42 87 -3 -117 c-3 -128 1 -120 -62 -120 -53 0 -50 -12 -50 202 l0 201 70 -3
71 -3 52 -114z m687 79 l0 -40 -105 0 -105 0 0 -35 0 -35 90 0 90 0 0 -45 0
-45 -90 0 -90 0 0 -40 0 -40 105 0 105 0 0 -39 c0 -22 -4 -41 -10 -43 -5 -1
-77 -2 -160 0 l-150 3 0 200 0 199 160 0 160 0 0 -40z m174 -7 c20 -25 36 -50
36 -55 0 -21 22 -3 57 47 l38 55 57 0 58 0 -18 -28 c-9 -15 -39 -58 -66 -95
l-49 -68 20 -27 c11 -15 37 -52 58 -82 21 -30 44 -62 51 -71 25 -28 15 -35
-42 -35 l-57 1 -44 65 c-25 36 -48 66 -51 67 -4 2 -14 -8 -22 -21 -51 -80 -73
-106 -93 -110 -33 -7 -87 -2 -88 8 -1 4 28 50 65 102 36 51 66 97 66 102 0 6
-19 36 -43 68 -23 33 -53 74 -66 92 l-22 32 59 0 c59 0 60 0 96 -47z"/>
<path d="M1123 4023 c-37 -80 -85 -214 -80 -220 2 -1 21 43 42 100 21 56 45
116 54 132 22 38 32 65 25 65 -3 0 -21 -35 -41 -77z"/>
<path d="M1600 3177 c0 -33 63 -109 131 -156 77 -54 92 -60 87 -35 -2 9 -33
32 -70 51 -73 37 -116 80 -125 124 -5 29 -23 41 -23 16z"/>
<path d="M3410 2880 c-6 -11 -7 -20 -2 -20 6 0 12 9 15 20 3 11 3 20 1 20 -2
0 -8 -9 -14 -20z"/>
<path d="M3375 2840 c-3 -5 -13 -6 -23 -3 -14 5 -15 3 -4 -8 10 -11 15 -10 29
4 10 9 14 17 11 17 -4 0 -9 -4 -13 -10z"/>
<path d="M3265 2820 c3 -5 11 -10 16 -10 6 0 7 5 4 10 -3 6 -11 10 -16 10 -6
0 -7 -4 -4 -10z"/>
<path d="M3185 2720 c10 -11 20 -20 23 -20 3 0 -3 9 -13 20 -10 11 -20 20 -23
20 -3 0 3 -9 13 -20z"/>
<path d="M3179 2644 c-13 -14 -17 -23 -9 -19 13 5 46 45 37 45 -2 0 -14 -11
-28 -26z"/>
<path d="M2806 2401 c-34 -14 -3 -18 84 -12 47 3 76 9 65 12 -31 9 -128 9
-149 0z"/>
<path d="M3015 2390 c-3 -6 1 -7 9 -4 18 7 21 14 7 14 -6 0 -13 -4 -16 -10z"/>
<path d="M2930 2310 c-8 -5 -10 -10 -5 -10 6 0 17 5 25 10 8 5 11 10 5 10 -5
0 -17 -5 -25 -10z"/>
<path d="M905 1470 c9 -16 18 -30 21 -30 2 0 -2 14 -11 30 -9 17 -18 30 -21
30 -2 0 2 -13 11 -30z"/>
<path d="M1366 1110 c-10 -27 -46 -133 -46 -137 0 -1 23 -3 50 -3 28 0 50 1
50 3 0 1 -11 36 -24 77 -14 43 -27 69 -30 60z"/>
<path d="M2799 469 c-7 -18 -24 -45 -37 -61 -16 -19 -21 -33 -15 -39 6 -6 20
4 38 31 27 38 30 40 81 40 31 0 54 -4 54 -10 0 -38 -90 -150 -120 -150 -6 0
-10 -7 -10 -15 0 -8 3 -15 6 -15 17 0 74 44 96 73 27 35 60 122 50 131 -3 3
-29 6 -59 6 -46 0 -53 3 -53 20 0 30 -16 24 -31 -11z"/>
<path d="M1583 483 c-94 -7 -57 -23 53 -23 l105 0 -36 -44 c-39 -48 -34 -72 7
-28 38 40 61 80 53 92 -6 10 -69 11 -182 3z"/>
<path d="M2297 483 c-2 -5 -10 -25 -16 -45 l-12 -38 -39 20 c-43 22 -60 25
-60 10 0 -5 18 -19 40 -30 22 -11 40 -24 40 -29 0 -14 -91 -91 -106 -91 -8 0
-11 -6 -8 -15 5 -13 12 -12 46 7 22 13 53 38 69 57 l28 34 35 -26 c19 -15 37
-27 40 -27 9 0 7 30 -1 30 -5 0 -20 11 -35 25 -27 23 -27 24 -13 66 8 23 15
45 15 50 0 11 -17 12 -23 2z"/>
<path d="M3080 465 c8 -10 31 -15 66 -15 l55 0 -17 -31 c-23 -45 -90 -115
-124 -129 -18 -8 -27 -17 -23 -26 4 -12 12 -10 42 7 20 12 49 34 64 48 l28 26
44 -48 c28 -31 46 -44 50 -37 4 7 -12 32 -38 58 l-45 47 24 48 c14 26 22 52
19 57 -3 6 -40 10 -82 10 -66 0 -74 -2 -63 -15z"/>
<path d="M2520 423 c1 -23 23 -53 39 -53 7 0 11 3 9 8 -32 66 -48 81 -48 45z"/>
<path d="M2616 391 c-7 -53 -42 -95 -88 -106 -27 -7 -36 -19 -20 -29 14 -8 90
32 106 56 23 35 37 116 21 122 -9 3 -15 -11 -19 -43z"/>
<path d="M1630 386 c0 -33 -7 -52 -26 -75 -14 -17 -32 -31 -40 -31 -15 0 -19
-12 -8 -23 11 -11 65 26 80 55 16 31 19 118 4 118 -5 0 -10 -20 -10 -44z"/>
<path d="M2466 412 c-9 -15 15 -62 31 -62 18 0 16 10 -6 43 -10 16 -21 24 -25
19z"/>
<path d="M1357 354 c-14 -15 -6 -34 14 -34 14 0 19 5 17 17 -3 18 -20 27 -31
17z"/>
<path d="M3400 340 c0 -15 5 -20 18 -18 9 2 17 10 17 18 0 8 -8 16 -17 18 -13
2 -18 -3 -18 -18z"/>
<path d="M1843 303 c-7 -3 -13 -9 -13 -14 0 -5 54 -9 121 -9 92 0 120 3 117
13 -3 8 -35 12 -109 13 -57 1 -110 -1 -116 -3z"/>
</g>
</svg>
