<?xml version="1.0" standalone="no"?>
<!DOCTYPE svg PUBLIC "-//W3C//DTD SVG 20010904//EN"
 "http://www.w3.org/TR/2001/REC-SVG-20010904/DTD/svg10.dtd">
<svg version="1.0" xmlns="http://www.w3.org/2000/svg"
 width="1048.000000pt" height="1144.000000pt" viewBox="0 0 1048.000000 1144.000000"
 preserveAspectRatio="xMidYMid meet">

<g transform="translate(0.000000,1144.000000) scale(0.100000,-0.100000)"
fill="#000000" stroke="none">
<path d="M4890 11114 c-193 -26 -362 -63 -536 -118 -172 -54 -234 -79 -422
-167 -207 -97 -430 -245 -592 -392 -28 -26 -61 -49 -73 -52 -12 -3 -482 -4
-1044 -3 l-1022 3 4 -4550 5 -4550 2572 3 c1415 1 3206 2 3981 2 l1407 0 -2
4547 -3 4546 -550 -2 c-302 -1 -706 1 -898 5 l-347 7 -73 55 c-246 188 -628
391 -923 492 -187 64 -437 129 -594 154 -222 36 -691 47 -890 20z m805 -88
c561 -67 1083 -274 1570 -623 134 -96 161 -120 348 -303 399 -390 614 -731
822 -1305 73 -200 114 -378 171 -730 75 -473 89 -668 69 -990 -19 -300 -34
-383 -91 -497 -54 -107 -137 -162 -208 -138 -20 6 -36 14 -36 17 0 3 18 26 41
50 103 112 135 277 143 728 3 143 7 274 10 290 11 58 14 381 5 455 -6 41 -12
95 -14 120 -4 51 -46 244 -74 340 -146 499 -161 537 -338 890 -92 184 -182
338 -253 430 -239 316 -417 485 -735 699 -148 101 -244 154 -364 206 -83 35
-294 108 -401 138 -277 79 -766 137 -1030 124 -121 -7 -400 -41 -460 -57 -19
-5 -44 -11 -55 -13 -11 -2 -40 -9 -65 -16 -25 -7 -52 -15 -60 -16 -103 -23
-517 -180 -540 -205 -3 -3 -39 -23 -80 -44 -141 -74 -360 -236 -450 -332 -68
-74 -147 -167 -243 -287 -118 -148 -118 -161 2 -68 42 32 96 68 121 81 98 50
204 90 221 85 20 -7 26 -44 10 -60 -17 -18 -81 -137 -81 -151 0 -25 25 -15 79
31 80 68 122 47 60 -31 -44 -55 -125 -189 -203 -333 -76 -141 -151 -251 -172
-251 -20 0 -18 15 16 115 16 49 30 93 30 98 0 10 -53 -31 -117 -91 -42 -39
-110 -66 -132 -52 -7 3 -17 35 -23 69 -12 62 -12 63 -41 57 -38 -8 -121 -63
-170 -113 -34 -36 -81 -121 -127 -233 -54 -129 -130 -421 -143 -545 -2 -22
-10 -83 -16 -135 -50 -395 -58 -480 -56 -560 2 -49 0 -90 -4 -90 -29 0 -97
561 -94 765 2 67 1 69 -12 40 -8 -16 -14 -37 -15 -46 0 -9 -7 -36 -15 -60 -9
-24 -25 -105 -36 -179 -39 -256 -15 -480 101 -950 22 -91 43 -175 45 -187 7
-29 -11 -30 -20 -3 -4 11 -17 31 -30 44 -25 25 -103 160 -147 256 -22 47 -63
169 -111 337 -11 36 -14 40 -29 29 -9 -7 -19 -23 -21 -37 -3 -13 -14 -60 -25
-104 -12 -44 -32 -136 -46 -205 -23 -118 -23 -128 -9 -183 44 -172 171 -316
1006 -1136 126 -123 226 -225 223 -228 -4 -4 -194 108 -326 192 -19 12 -78 45
-131 73 -148 78 -450 291 -577 406 -90 82 -252 309 -327 461 -63 127 -78 232
-79 555 0 228 1 240 32 385 118 549 226 834 475 1250 177 296 247 392 477 660
280 325 477 503 759 687 142 92 396 220 511 258 14 5 57 20 95 35 145 54 447
123 643 145 117 13 596 4 747 -14z m3104 -985 c12 -8 13 -479 8 -3303 -4
-1811 -7 -3404 -7 -3541 l0 -247 -1027 2 -1028 3 -52 105 c-78 157 -112 272
-106 352 9 105 -11 131 -197 255 -179 121 -440 247 -715 348 -79 29 -94 38
-125 78 -50 65 -136 205 -160 259 -18 42 -19 49 -6 84 29 80 69 160 102 206
39 52 41 52 141 7 24 -10 45 -19 48 -19 3 0 40 -16 82 -36 234 -108 333 -138
424 -131 84 7 122 29 315 184 82 65 165 130 184 143 19 14 43 32 53 41 10 9
50 39 88 66 204 142 313 228 391 309 114 117 147 162 212 291 82 163 111 266
166 608 12 71 25 134 29 138 5 5 32 -6 60 -23 29 -16 79 -38 110 -46 l59 -17
6 -81 c3 -44 9 -218 12 -386 5 -260 3 -340 -15 -540 -22 -259 -48 -438 -91
-630 -47 -212 -210 -668 -282 -790 -38 -64 -72 -115 -92 -137 -40 -47 7 -22
66 35 34 31 56 48 50 37 -28 -52 -113 -121 -133 -109 -8 4 -9 3 -5 -4 4 -7 13
-12 21 -12 21 0 114 90 136 131 17 34 109 178 159 250 27 38 162 308 205 409
231 540 356 1114 440 2023 6 57 9 67 23 63 57 -17 76 -17 117 -2 99 38 176
167 230 385 40 166 48 272 42 577 -7 336 -27 541 -78 814 -25 131 -103 455
-120 495 -6 17 -13 37 -14 45 -4 23 -72 215 -107 300 -74 180 -242 485 -351
635 -101 139 -225 293 -274 341 -13 12 -23 24 -23 28 0 3 222 7 493 9 270 1
499 3 507 4 8 2 21 -1 29 -6z m-3277 -158 c-123 -250 -152 -320 -262 -628 -78
-220 -139 -442 -214 -790 -13 -60 -24 -97 -25 -82 -1 35 50 290 90 451 60 239
202 637 314 881 42 92 165 325 171 325 2 0 -31 -71 -74 -157z m-3971 -560 c1
-390 1 -995 1 -1345 -1 -475 2 -638 10 -638 9 0 9 -3 0 -12 -6 -6 -14 -9 -17
-7 -8 9 -11 2709 -2 2709 4 0 7 -318 8 -707z m956 700 c-174 -2 -460 -2 -635
0 -174 1 -31 2 318 2 349 0 492 -1 317 -2z m392 -10 c-8 -10 -44 -53 -82 -96
-37 -43 -78 -95 -91 -115 -13 -20 -38 -53 -56 -72 l-31 -35 18 33 c9 17 21 32
25 32 4 0 8 6 8 13 0 7 8 20 18 29 9 9 33 38 52 64 19 27 50 62 68 78 44 39
58 66 41 77 -10 6 -5 9 15 9 26 0 27 -2 15 -17z m1739 -266 c-44 -66 -176
-336 -242 -493 -104 -249 -235 -655 -271 -839 -73 -380 -114 -754 -116 -1058
0 -67 -4 -131 -9 -142 -6 -14 -9 -15 -9 -4 -1 22 -91 119 -164 177 -73 58
-117 82 -150 82 -29 0 -95 -49 -94 -70 0 -8 -11 -34 -26 -57 -15 -24 -27 -49
-27 -57 0 -7 -7 -19 -15 -26 -16 -13 -21 -40 -7 -40 4 0 39 33 79 74 54 57 82
78 113 86 23 6 46 10 53 7 6 -2 11 -26 11 -53 1 -70 52 -169 118 -229 l51 -47
-23 -51 c-30 -68 -38 -137 -16 -137 9 0 22 12 28 28 6 15 25 56 42 92 25 53
31 76 29 125 -1 37 1 54 6 45 5 -8 12 -100 15 -205 7 -197 28 -420 51 -540 8
-38 10 -74 6 -78 -14 -14 -82 -27 -146 -27 -53 0 -66 4 -112 36 -30 20 -91 83
-143 147 -50 62 -110 134 -133 161 -92 108 -131 164 -165 236 -34 72 -35 77
-29 165 6 89 61 316 92 379 8 16 15 36 16 45 0 9 17 43 37 76 49 79 89 99 194
98 64 -1 89 -6 142 -31 36 -17 85 -49 111 -73 26 -24 49 -38 54 -33 4 5 13 97
19 204 12 195 22 276 61 489 12 63 19 116 17 118 -5 5 -69 -80 -109 -144 -67
-106 -381 -463 -395 -449 -3 3 31 44 74 91 136 147 252 287 316 380 34 50 74
107 90 127 16 20 31 45 33 55 36 181 174 616 263 828 88 211 267 555 289 555
3 0 -1 -10 -9 -23z m-2010 -77 c-7 -10 -14 -17 -17 -15 -4 4 18 35 25 35 2 0
-1 -9 -8 -20z m-36 -52 c-7 -7 -12 -8 -12 -2 0 14 12 26 19 19 2 -3 -1 -11 -7
-17z m-38 -63 c-9 -14 -19 -23 -22 -20 -5 4 26 45 35 45 2 0 -4 -11 -13 -25z
m1395 -51 c45 -37 84 -77 87 -89 7 -29 -41 -141 -70 -161 -34 -23 -71 -16
-176 33 -123 57 -128 66 -75 153 51 83 97 130 128 130 16 0 54 -23 106 -66z
m-1430 -6 c-7 -13 -27 -46 -45 -75 -18 -28 -43 -70 -54 -93 -12 -23 -23 -40
-26 -37 -5 5 15 55 29 72 4 6 29 43 54 83 44 69 67 96 42 50z m5008 -80 c-3
-8 -6 -5 -6 6 -1 11 2 17 5 13 3 -3 4 -12 1 -19z m476 -75 c31 -49 61 -101 68
-118 8 -16 17 -32 21 -35 36 -27 159 -372 174 -490 2 -19 11 -79 20 -133 8
-54 14 -103 11 -110 -2 -7 -19 35 -37 93 -18 58 -39 110 -46 115 -6 6 -28 69
-48 140 -64 231 -157 492 -218 608 -5 9 -7 17 -4 17 2 0 29 -39 59 -87z m-446
-35 c-3 -8 -6 -5 -6 6 -1 11 2 17 5 13 3 -3 4 -12 1 -19z m-3387 -32 c26 -32
-7 -87 -44 -73 -22 9 -21 63 2 76 23 14 28 13 42 -3z m3397 -8 c-3 -8 -6 -5
-6 6 -1 11 2 17 5 13 3 -3 4 -12 1 -19z m-5198 -25 c-28 -48 -39 -60 -39 -46
0 16 43 82 53 83 5 0 -1 -17 -14 -37z m5231 -104 c44 -226 81 -671 61 -724 -4
-10 -11 59 -15 155 -7 179 -34 433 -61 573 -8 43 -15 86 -15 95 0 35 10 0 30
-99z m-5279 18 c-10 -9 -11 -8 -5 6 3 10 9 15 12 12 3 -3 0 -11 -7 -18z m-23
-42 c-6 -14 -13 -24 -14 -22 -6 6 9 47 17 47 5 0 3 -11 -3 -25z m2463 -11 c7
-9 37 -30 66 -46 57 -32 59 -38 27 -98 -25 -46 -31 -51 -73 -61 -50 -11 -119
4 -128 28 -8 20 12 95 39 151 23 45 46 53 69 26z m-2504 -75 c-22 -36 -25 -38
-24 -16 1 14 5 23 8 21 3 -2 11 8 18 23 6 14 14 23 17 20 3 -3 -5 -24 -19 -48z
m-33 -64 c-4 -8 -8 -15 -10 -15 -2 0 -4 7 -4 15 0 8 4 15 10 15 5 0 7 -7 4
-15z m5840 -118 c25 -84 32 -177 15 -187 -16 -11 -39 6 -39 29 0 9 -11 61 -24
116 -13 55 -27 115 -31 134 l-7 34 35 -35 c22 -23 40 -55 51 -91z m-5869 54
c-8 -17 -18 -31 -21 -31 -3 0 -4 3 -2 8 21 43 32 61 35 58 3 -2 -3 -18 -12
-35z m2820 -20 c-10 -39 -25 -54 -41 -40 -18 15 -18 39 2 67 13 19 19 21 31
11 9 -8 12 -21 8 -38z m2945 -74 c10 -51 15 -104 12 -139 -2 -22 -22 -24 -22
-3 0 11 -7 14 -26 9 -34 -9 -50 15 -64 98 -13 72 -7 108 16 108 8 0 14 5 14
11 0 6 13 1 29 -11 23 -15 32 -33 41 -73z m-5799 26 c-12 -20 -14 -14 -5 12 4
9 9 14 11 11 3 -2 0 -13 -6 -23z m-63 -158 c-28 -69 -52 -124 -54 -122 -4 4
44 138 72 202 10 22 17 44 16 48 -2 5 2 6 7 3 5 -3 -14 -62 -41 -131z m3493
125 c13 -8 19 -21 19 -45 0 -29 -4 -36 -27 -41 -34 -9 -57 6 -61 40 -6 47 26
68 69 46z m2219 -136 c0 -14 -4 -23 -10 -19 -5 3 -10 15 -10 26 0 10 5 19 10
19 6 0 10 -12 10 -26z m-430 -50 c0 -8 -5 -12 -10 -9 -6 4 -8 11 -5 16 9 14
15 11 15 -7z m-167 -31 c37 -42 -48 -126 -88 -87 -23 24 -18 60 11 83 33 26
56 27 77 4z m-5202 -134 c-9 -22 -10 -22 -10 -3 -1 11 2 24 6 27 12 12 14 0 4
-24z m-30 -103 c-14 -36 -22 -33 -9 5 6 16 12 28 14 26 3 -2 0 -16 -5 -31z
m3036 -43 c-3 -10 -5 -2 -5 17 0 19 2 27 5 18 2 -10 2 -26 0 -35z m-3073 -78
c-4 -8 -8 -15 -10 -15 -2 0 -4 7 -4 15 0 8 4 15 10 15 5 0 7 -7 4 -15z m4599
-67 c-11 -153 -26 -316 -39 -418 -20 -154 -19 -153 -30 -157 -13 -4 -104 56
-104 68 0 5 -8 9 -17 9 -10 0 -26 7 -36 14 -17 13 -16 17 19 72 58 91 151 293
176 383 13 44 26 81 29 81 3 0 4 -24 2 -52z m-4622 -63 c-12 -48 -21 -97 -21
-111 0 -13 -4 -24 -9 -24 -10 0 -7 23 22 150 11 52 22 89 24 83 2 -6 -5 -50
-16 -98z m3854 -71 c-14 -38 -37 -93 -52 -121 -26 -53 -26 -53 -75 -53 -26 0
-48 4 -48 8 0 5 12 19 26 33 14 13 57 66 96 117 38 52 72 92 74 89 3 -2 -7
-35 -21 -73z m1883 -307 c-3 -210 -2 -207 -74 -207 l-42 0 33 103 c31 96 73
275 76 329 2 18 3 16 6 -7 3 -16 3 -115 1 -218z m-5781 141 c-3 -8 -6 -5 -6 6
-1 11 2 17 5 13 3 -3 4 -12 1 -19z m4296 -10 c-5 -7 -19 -30 -32 -51 -15 -25
-27 -35 -34 -28 -10 10 48 91 65 91 5 0 5 -6 1 -12z m-4303 -118 l-7 -105 -1
92 c-2 78 4 132 13 121 1 -2 -1 -50 -5 -108z m3746 49 c27 -7 43 -16 40 -23
-3 -6 -21 -49 -42 -96 -20 -47 -41 -91 -47 -97 -6 -8 -36 -13 -81 -14 -49 0
-65 -3 -51 -9 11 -5 34 -9 50 -9 45 -2 59 -14 46 -40 -11 -20 -19 -21 -134
-21 -136 0 -168 9 -127 36 14 9 84 76 155 150 72 74 134 134 138 134 5 0 28
-5 53 -11z m1879 -131 c-13 -61 -38 -133 -51 -147 -27 -29 -25 -1 4 66 16 37
33 78 37 91 10 34 17 26 10 -10z m-1545 -91 c-38 -47 -72 -76 -92 -77 -19 -1
-4 21 58 86 76 78 99 73 34 -9z m-4075 43 c3 -5 1 -10 -4 -10 -6 0 -11 5 -11
10 0 6 2 10 4 10 3 0 8 -4 11 -10z m4332 -19 c-2 -10 -28 -55 -58 -99 l-53
-81 -30 17 c-17 9 -40 15 -51 13 -16 -3 -17 -1 -6 13 9 11 17 13 25 7 13 -11
131 98 141 130 8 26 39 25 32 0z m-4328 -46 l0 -20 -9 20 c-5 11 -9 27 -9 35
-1 13 0 13 9 0 5 -8 9 -24 9 -35z m4470 24 c42 -11 87 -25 101 -32 14 -6 26
-12 27 -12 1 -1 -6 -28 -16 -61 -10 -32 -19 -63 -21 -69 -1 -5 -6 -20 -11 -33
-5 -13 -9 -27 -9 -32 0 -23 -46 -147 -62 -169 -10 -13 -18 -33 -18 -43 0 -20
-45 -109 -80 -159 -11 -14 -34 -30 -52 -36 l-33 -10 42 -13 c52 -16 174 0 236
31 65 33 165 107 236 173 l65 61 -29 -50 c-15 -27 -52 -80 -81 -116 -30 -36
-54 -69 -54 -71 0 -14 49 -15 130 -3 102 15 164 49 262 143 32 30 60 53 63 50
2 -2 -29 -44 -71 -92 -42 -48 -73 -90 -71 -93 3 -2 24 5 48 18 65 33 256 233
359 376 42 58 66 80 77 69 9 -8 -19 -80 -78 -201 -47 -96 -70 -130 -111 -168
-45 -41 -48 -46 -21 -33 18 9 41 17 51 19 11 2 27 9 36 16 9 8 19 12 22 9 2
-3 -12 -17 -31 -33 -53 -40 -121 -113 -159 -170 -19 -27 -59 -74 -91 -103 -31
-29 -54 -56 -50 -60 3 -4 11 1 16 11 6 9 15 17 22 17 6 0 21 12 34 28 17 20
22 23 23 10 0 -9 -12 -26 -28 -36 -74 -53 -102 -313 -42 -377 17 -18 30 -22
61 -19 22 2 52 10 67 18 39 20 122 103 122 121 0 9 18 51 39 94 51 101 80 192
83 261 l3 55 38 -3 c24 -2 49 3 64 13 24 16 26 16 50 -7 59 -54 67 -136 29
-288 -13 -52 -23 -96 -23 -97 6 -5 46 39 71 77 l30 45 8 -32 c6 -25 0 -61 -26
-155 -19 -68 -53 -220 -76 -338 -22 -118 -50 -249 -61 -290 -90 -322 -233
-498 -650 -800 -93 -68 -334 -256 -367 -287 -37 -36 -137 -106 -180 -128 -62
-31 -138 -33 -231 -5 -76 22 -472 217 -576 282 -63 40 -187 116 -237 144 -25
15 -50 50 -47 66 2 7 -9 51 -23 98 -48 158 -110 417 -131 545 -13 79 -49 291
-53 309 -2 12 -6 41 -9 66 -2 25 -9 77 -15 115 -6 39 -13 86 -16 105 -2 19 -7
46 -9 60 -3 14 -7 61 -10 105 l-6 80 74 -220 c90 -266 182 -522 212 -590 13
-27 35 -79 50 -115 82 -197 274 -550 338 -621 18 -19 27 -28 21 -20 -29 40
-131 225 -171 311 -76 163 -150 351 -191 485 -16 55 -44 145 -61 200 -27 91
-87 311 -97 360 -2 11 -8 43 -14 70 -16 80 -59 314 -72 393 -10 62 -10 75 3
83 12 7 11 9 -2 9 -20 0 -31 44 -16 59 14 14 47 -15 47 -39 0 -10 29 -45 65
-78 44 -41 63 -66 59 -77 -3 -8 -11 -15 -17 -15 -12 0 -47 -30 -47 -41 0 -11
38 1 51 17 6 8 22 14 36 14 l24 0 -22 30 c-13 16 -20 32 -17 36 3 3 18 -11 34
-31 23 -31 25 -38 13 -47 -11 -8 -10 -9 5 -4 12 4 28 -3 49 -24 25 -24 27 -30
13 -30 -19 0 -66 -43 -66 -61 0 -14 20 -11 26 5 3 8 21 22 40 31 31 14 36 14
64 0 31 -16 38 -29 20 -40 -5 -3 -10 -15 -10 -26 0 -10 5 -19 10 -19 6 0 10 6
10 13 0 7 6 21 13 31 11 15 18 16 33 8 11 -6 26 -7 33 -3 8 5 -13 21 -60 46
-72 38 -151 102 -170 137 -8 16 -3 14 29 -7 46 -30 121 -55 166 -55 18 0 56 7
86 16 30 9 64 16 76 16 16 0 20 5 16 23 -3 18 3 27 25 39 68 35 125 218 103
335 -14 74 -13 81 9 81 51 0 159 -117 241 -264 52 -92 117 -169 136 -162 7 3
15 0 18 -7 6 -13 3 6 -15 106 -7 37 -16 67 -20 67 -4 0 -10 7 -13 16 -4 9 -2
13 5 8 8 -4 9 1 4 17 -6 17 7 8 44 -31 45 -49 51 -52 47 -28 -5 33 -87 205
-121 255 -43 64 -32 69 51 23 89 -49 115 -49 48 0 -136 100 -166 120 -177 120
-17 0 -57 29 -57 40 0 14 72 46 93 42 9 -2 14 -8 11 -13 -3 -6 3 -5 15 2 18
12 28 8 96 -39 82 -57 101 -58 30 -2 l-44 34 23 26 c13 14 37 45 54 70 33 49
69 90 79 90 4 0 41 -9 82 -21z m-4079 -44 c0 -8 -2 -15 -4 -15 -2 0 -6 7 -10
15 -3 8 -1 15 4 15 6 0 10 -7 10 -15z m3370 -40 c0 -8 -7 -15 -15 -15 -8 0
-15 7 -15 15 0 8 7 15 15 15 8 0 15 -7 15 -15z m-3413 -99 c-1 -41 -4 -73 -8
-70 -8 5 -3 144 5 144 2 0 3 -33 3 -74z m5391 45 c19 -11 5 -135 -29 -263 -10
-40 -51 -68 -100 -68 -15 0 -56 -9 -90 -20 -35 -10 -64 -18 -65 -17 -1 1 20
38 47 82 27 44 66 121 88 170 31 75 44 93 72 107 37 20 57 22 77 9z m-5258
-196 c-1 -17 -2 -18 -10 -4 -5 8 -11 26 -14 40 -3 13 -14 49 -25 79 -34 89
-23 82 14 -10 19 -47 35 -94 35 -105z m-470 135 c0 -5 -5 -10 -11 -10 -5 0 -7
5 -4 10 3 6 8 10 11 10 2 0 4 -4 4 -10z m-137 -17 c-7 -2 -21 -2 -30 0 -10 3
-4 5 12 5 17 0 24 -2 18 -5z m137 -13 c0 -5 -2 -10 -4 -10 -3 0 -8 5 -11 10
-3 6 -1 10 4 10 6 0 11 -4 11 -10z m13 -81 c16 -151 86 -300 231 -493 116
-155 239 -270 479 -450 64 -48 117 -92 117 -97 0 -5 -11 -27 -25 -49 -42 -66
-78 -188 -71 -239 3 -24 10 -49 15 -55 4 -6 11 -26 15 -45 9 -48 45 -132 137
-317 43 -88 79 -163 79 -166 0 -4 -17 -17 -37 -29 -109 -66 -242 -198 -268
-266 -16 -41 -16 -48 1 -121 10 -42 19 -84 20 -92 2 -8 10 -42 20 -75 45 -160
67 -232 79 -250 18 -31 25 -65 12 -65 -16 -1 -147 -19 -172 -25 -178 -38 -227
-64 -360 -199 -125 -127 -213 -240 -314 -407 -110 -181 -139 -279 -110 -370 6
-19 13 -41 15 -49 5 -13 6 -13 14 0 8 12 10 11 10 -5 0 -12 5 -26 12 -33 6 -6
8 -15 4 -19 -4 -4 -11 -1 -16 7 -7 11 -14 12 -27 4 -71 -42 -70 -203 2 -376 7
-17 -2 -18 -109 -18 -86 0 -116 3 -116 13 0 6 -1 637 -2 1402 -1 765 -1 1740
0 2168 l2 777 179 0 178 0 6 -61z m393 -30 c31 -39 61 -68 67 -66 7 3 13 -6
14 -20 1 -24 -1 -24 -39 13 -21 22 -49 55 -61 74 -12 19 -27 41 -34 48 -13 14
-16 22 -8 22 2 0 30 -32 61 -71z m3709 61 c3 -5 2 -10 -4 -10 -5 0 -13 5 -16
10 -3 6 -2 10 4 10 5 0 13 -4 16 -10z m-865 -15 c-7 -8 -16 -15 -21 -15 -5 0
-9 7 -9 15 0 9 9 15 21 15 18 0 19 -2 9 -15z m2635 -149 c-12 -84 -22 -125
-33 -133 -9 -8 -11 -13 -4 -13 7 0 12 -7 12 -15 0 -17 -55 -21 -79 -6 -10 7
-8 12 9 24 13 9 17 17 11 22 -12 7 -5 49 13 80 7 11 28 62 47 112 41 112 47
95 24 -71z m-2654 -31 c6 -116 19 -176 51 -238 26 -51 17 -58 -13 -11 -23 38
-40 33 -19 -5 6 -12 8 -21 5 -21 -3 0 -30 51 -61 113 -43 89 -56 126 -61 179
-8 90 -3 100 49 96 l43 -3 6 -110z m187 93 c7 -7 11 -32 10 -57 l-1 -46 -4 40
c-7 69 -53 81 -79 21 -10 -24 -13 -26 -14 -10 0 25 35 64 58 64 10 0 23 -5 30
-12z m232 2 c18 -12 2 -12 -25 0 -13 6 -15 9 -5 9 8 0 22 -4 30 -9z m-63 -51
c-8 -21 -13 -26 -15 -15 -2 10 2 23 8 31 18 22 20 18 7 -16z m-2980 -86 c17
-35 27 -63 24 -63 -3 0 -31 23 -61 51 -53 49 -53 50 -15 28 23 -14 36 -17 29
-9 -9 13 -18 68 -10 59 2 -2 17 -32 33 -66z m2723 47 c0 -5 -4 -10 -10 -10 -5
0 -10 5 -10 10 0 6 5 10 10 10 6 0 10 -4 10 -10z m234 -91 c-23 -25 -30 -16
-10 13 9 12 17 36 18 53 1 25 2 24 5 -8 3 -27 -1 -45 -13 -58z m2144 54 c-4
-22 -38 -30 -38 -10 0 14 13 24 33 26 5 1 7 -7 5 -16z m838 -95 c-4 -62 -12
-147 -18 -188 -10 -77 -53 -200 -69 -200 -13 0 -11 297 2 305 13 8 55 103 69
156 6 21 13 39 16 39 4 0 3 -51 0 -112z m-946 87 c-19 -23 -118 -68 -131 -59
-8 4 -9 3 -5 -4 5 -8 0 -12 -13 -12 -12 0 -21 -4 -21 -10 0 -5 -6 -10 -12 -10
-7 0 -24 -9 -38 -20 -14 -11 -31 -20 -39 -20 -17 0 28 50 73 83 68 48 218 91
186 52z m-2530 -21 c0 -8 5 -23 12 -33 6 -10 8 -27 4 -37 -6 -16 -9 -17 -15
-4 -14 25 -23 102 -11 95 5 -3 10 -13 10 -21z m250 -36 c0 -5 -4 -8 -10 -8 -5
0 -10 10 -10 23 0 18 2 19 10 7 5 -8 10 -18 10 -22z m137 -10 c-3 -8 -6 -5 -6
6 -1 11 2 17 5 13 3 -3 4 -12 1 -19z m-113 -24 c3 -8 2 -12 -4 -9 -6 3 -10 10
-10 16 0 14 7 11 14 -7z m-14 -24 c18 -36 28 -80 18 -74 -6 4 -9 1 -6 -7 3 -8
15 -20 29 -26 14 -8 18 -13 9 -13 -9 -1 -5 -6 10 -14 14 -8 29 -12 34 -9 5 4
6 1 2 -5 -4 -7 -1 -12 6 -13 7 -1 28 -2 45 -4 18 -1 30 1 27 6 -3 5 4 9 15 9
12 0 21 5 21 10 0 6 9 10 20 10 14 0 18 5 13 17 -4 11 -3 14 5 9 6 -4 24 1 39
10 26 16 25 15 -7 -19 -19 -21 -40 -35 -48 -32 -7 2 -11 1 -8 -4 7 -12 -39
-31 -75 -31 -16 0 -44 6 -62 14 -40 17 -107 87 -89 93 23 9 12 23 -13 17 -20
-5 -27 -1 -36 20 -9 20 -9 29 1 41 15 19 40 16 50 -5z m40 -10 c0 -5 -2 -10
-4 -10 -3 0 -8 5 -11 10 -3 6 -1 10 4 10 6 0 11 -4 11 -10z m285 -39 c3 -5 2
-12 -3 -15 -5 -3 -9 1 -9 9 0 17 3 19 12 6z m-47 -26 c-3 -3 -9 2 -12 12 -6
14 -5 15 5 6 7 -7 10 -15 7 -18z m601 -34 c1 -35 -5 -22 -12 24 -5 28 -4 34 3
20 5 -11 9 -31 9 -44z m1632 -112 c-54 -114 -80 -155 -81 -128 0 9 9 37 20 62
11 26 24 72 28 103 7 54 9 58 42 69 19 7 36 9 38 5 1 -4 -20 -54 -47 -111z
m-496 41 c3 -5 -2 -11 -12 -11 -16 -1 -16 -2 -1 -6 10 -2 15 -10 11 -19 -4
-11 -9 -12 -19 -3 -12 9 -14 5 -14 -26 0 -32 2 -36 15 -25 13 11 14 10 9 -4
-3 -9 -10 -16 -15 -16 -5 0 -9 -5 -9 -11 0 -5 5 -7 10 -4 6 3 10 1 10 -4 0
-14 -13 -14 -28 1 -6 6 -15 8 -19 4 -4 -4 -1 -11 7 -16 8 -6 10 -10 5 -10 -6
0 -17 6 -24 13 -10 10 -11 7 -6 -14 4 -16 2 -30 -4 -34 -6 -3 -8 -12 -5 -18 5
-9 3 -9 -6 0 -10 10 -11 15 -1 27 7 8 8 17 3 20 -15 9 -25 -44 -11 -60 6 -7 9
-21 5 -29 -3 -8 -1 -15 4 -15 10 0 25 39 22 57 -2 6 2 14 8 18 6 4 7 -1 3 -11
-4 -11 -2 -15 4 -11 6 4 14 -1 18 -10 3 -10 1 -19 -4 -21 -6 -2 -11 -8 -11
-13 0 -6 5 -7 10 -4 9 6 40 -17 40 -29 0 -11 -36 -6 -48 6 -9 9 -15 9 -24 -1
-9 -10 -9 -12 -1 -7 15 8 25 -8 17 -28 -8 -21 -89 -73 -125 -81 -46 -10 -70
17 -68 75 1 26 -1 52 -5 58 -4 7 -3 12 2 12 5 0 7 14 4 30 -3 18 0 30 7 30 6
0 11 -4 11 -10 0 -5 16 -10 35 -10 31 0 39 6 72 56 21 32 39 73 42 97 5 31 12
45 31 54 30 15 47 16 55 3z m615 -411 l0 -132 -42 7 c-46 7 -115 44 -139 72
-12 15 -5 25 75 100 49 46 92 84 97 84 5 0 9 -59 9 -131z m-845 -19 c3 -5 1
-10 -4 -10 -6 0 -11 5 -11 10 0 6 2 10 4 10 3 0 8 -4 11 -10z m-4165 -162 c0
-5 -16 -33 -35 -62 -23 -35 -35 -65 -35 -87 0 -30 27 -116 88 -279 46 -123 81
-280 63 -280 -5 0 -14 15 -21 33 -8 17 -47 102 -88 187 -89 185 -108 263 -86
348 16 62 16 61 58 124 23 34 34 44 44 36 6 -6 12 -15 12 -20z m1247 -140 c-3
-8 -6 -5 -6 6 -1 11 2 17 5 13 3 -3 4 -12 1 -19z m-1 -60 c-11 -41 22 -158
209 -737 46 -142 97 -267 210 -509 31 -68 55 -125 52 -128 -2 -3 -29 8 -58 24
-126 67 -395 163 -497 177 -97 13 -267 3 -349 -21 -26 -7 -31 7 -9 26 26 20
137 198 171 273 70 153 115 305 170 572 44 216 45 225 45 282 0 54 1 55 25 49
14 -4 25 -2 25 4 0 5 3 10 6 10 4 0 4 -10 0 -22z m-129 -380 c-3 -8 -6 -5 -6
6 -1 11 2 17 5 13 3 -3 4 -12 1 -19z m-112 -230 c-14 -51 -51 -157 -83 -236
l-56 -145 -12 79 c-12 81 -26 146 -39 176 -5 13 13 32 78 83 59 46 91 80 108
112 33 64 35 37 4 -69z m-864 -224 c52 -106 29 -106 -28 0 -29 54 -53 100 -53
103 0 20 56 -51 81 -103z m19 85 c0 -5 -4 -9 -10 -9 -5 0 -10 7 -10 16 0 8 5
12 10 9 6 -3 10 -10 10 -16z m1566 -201 c57 -113 162 -290 256 -431 97 -146
108 -167 87 -167 -8 0 -7 -5 1 -15 7 -9 11 -18 8 -21 -5 -4 -21 16 -53 67 -5
9 -35 54 -66 100 -86 130 -113 176 -167 284 -42 84 -102 220 -102 232 0 14 14
-5 36 -49z m739 -448 c8 -16 15 -37 14 -47 0 -16 -36 49 -38 70 -2 16 9 6 24
-23z m-2871 -258 c2 -4 -11 -32 -30 -62 -39 -61 -107 -231 -126 -311 -9 -35
-13 -125 -12 -254 1 -205 8 -269 65 -560 12 -60 22 -121 23 -135 l1 -25 -180
-3 c-191 -3 -212 2 -215 43 -5 44 1 82 13 99 13 17 16 17 66 -9 29 -14 55 -24
57 -22 3 2 -4 44 -15 93 -35 164 -33 369 5 519 54 210 188 477 308 613 20 23
32 27 40 14z m-113 -49 c-113 -135 -161 -221 -215 -385 -50 -150 -68 -247 -72
-387 -4 -130 12 -333 28 -364 20 -38 -27 1 -111 92 -138 151 -151 173 -157
266 -4 70 16 125 104 275 102 175 255 374 365 476 77 71 106 84 58 27z m2273
-388 c184 -40 225 -53 373 -125 216 -104 357 -206 492 -355 53 -58 291 -407
291 -426 0 -5 -583 -9 -1538 -9 l-1539 0 85 167 c47 92 93 190 103 218 17 49
18 50 81 66 34 8 127 48 206 87 78 40 144 72 146 72 2 0 46 20 97 44 311 147
686 275 849 290 87 7 243 -5 354 -29z m1876 -345 c0 -5 -2 -10 -4 -10 -3 0 -8
5 -11 10 -3 6 -1 10 4 10 6 0 11 -4 11 -10z m-47 -55 c-3 -9 -8 -14 -10 -11
-3 3 -2 9 2 15 9 16 15 13 8 -4z m59 -7 c-5 -7 -13 -27 -17 -45 -6 -29 -65
-117 -65 -97 1 37 64 154 84 154 5 0 4 -6 -2 -12z m-3622 -42 c0 -11 -19 -15
-25 -6 -3 5 1 10 9 10 9 0 16 -2 16 -4z m-1022 -138 c9 -17 36 -53 59 -78 l43
-47 -32 -59 c-18 -32 -35 -77 -38 -99 -4 -34 -9 -40 -28 -40 -21 0 -27 11 -53
90 -46 137 -39 265 14 265 10 0 25 -14 35 -32z m4670 -40 c13 -16 143 -271
139 -274 -8 -7 -133 -21 -140 -15 -4 5 -10 57 -13 117 -2 60 -6 126 -8 147 -4
38 4 47 22 25z m-3325 -628 c2 -3 68 -198 147 -435 79 -236 145 -436 148 -442
3 -10 -24 -13 -115 -13 l-120 0 -34 110 -34 110 -171 0 -171 0 -34 -110 -34
-110 -118 0 c-91 0 -118 3 -115 13 3 6 69 203 148 437 79 234 147 431 153 438
7 9 52 12 177 10 93 -2 170 -5 173 -8z m605 4 c26 -5 55 -42 214 -270 l183
-264 5 267 5 268 113 3 112 3 0 -451 0 -451 -122 3 -121 3 -186 266 -186 267
-3 -269 -2 -269 -115 0 -115 0 0 443 c0 244 3 447 7 450 8 9 170 9 211 1z
m1032 -444 l0 -450 -120 0 -120 0 0 444 0 445 23 4 c12 2 66 5 120 6 l97 1 0
-450z m576 191 c65 -143 122 -257 126 -253 4 4 55 115 113 247 59 132 112 246
118 253 7 9 45 12 141 11 71 0 136 -3 143 -6 10 -4 13 -93 13 -449 l0 -444
-115 0 -115 0 -2 289 -3 288 -100 -223 -100 -224 -100 2 -99 3 -101 212 -100
213 -3 -280 -2 -280 -115 0 -115 0 0 444 c0 346 3 445 13 449 6 2 73 5 148 6
l136 2 119 -260z m1512 162 l3 -93 -231 0 -230 0 0 -80 0 -80 195 0 195 0 0
-94 0 -94 -192 -1 -193 0 -3 -86 -3 -85 231 0 230 0 0 -95 0 -95 -350 0 -350
0 0 450 0 451 348 -3 347 -3 3 -92z m390 -33 c52 -71 95 -130 97 -130 2 0 45
58 96 130 l93 129 111 -1 c60 -1 117 -3 126 -6 13 -3 -19 -53 -132 -209 -82
-113 -149 -209 -149 -213 0 -3 72 -106 159 -228 88 -121 162 -226 166 -231 4
-8 -36 -11 -127 -11 l-133 0 -105 149 c-58 82 -108 147 -112 145 -3 -2 -52
-69 -108 -149 l-102 -145 -130 0 -130 0 18 28 c9 15 74 106 144 202 69 96 136
189 148 207 l22 32 -150 206 c-82 113 -150 209 -150 213 0 4 57 8 128 10 l127
3 93 -131z"/>
<path d="M2557 9007 c-30 -46 -118 -229 -156 -324 -52 -132 -121 -336 -121
-359 0 -32 16 -2 50 96 61 174 133 349 227 548 26 56 27 79 0 39z"/>
<path d="M3516 6987 c-8 -33 11 -94 44 -142 45 -65 128 -152 183 -192 96 -71
230 -151 244 -146 41 16 -15 80 -109 126 -40 19 -95 45 -123 58 -93 43 -204
183 -205 259 0 14 -7 33 -14 43 -13 17 -14 16 -20 -6z"/>
<path d="M5605 6710 c3 -5 10 -10 16 -10 5 0 9 5 9 10 0 6 -7 10 -16 10 -8 0
-12 -4 -9 -10z"/>
<path d="M5570 6563 c0 -5 5 -15 10 -23 8 -12 10 -11 10 8 0 12 -4 22 -10 22
-5 0 -10 -3 -10 -7z"/>
<path d="M7446 6371 c-4 -5 -2 -12 3 -15 5 -4 12 -2 15 3 4 5 2 12 -3 15 -5 4
-12 2 -15 -3z"/>
<path d="M7487 6317 c-8 -18 -32 -46 -53 -62 -21 -16 -42 -33 -45 -38 -4 -5
-16 -3 -27 4 -35 22 -48 -2 -17 -31 l25 -23 49 51 c28 29 57 52 65 52 10 0 16
9 16 24 0 14 5 28 10 31 13 8 13 25 0 25 -5 0 -16 -15 -23 -33z"/>
<path d="M7242 6200 c0 -14 2 -19 5 -12 2 6 2 18 0 25 -3 6 -5 1 -5 -13z"/>
<path d="M7140 6206 c0 -3 8 -15 17 -26 24 -27 45 -26 41 3 -2 16 -11 23 -30
25 -16 2 -28 1 -28 -2z"/>
<path d="M6950 5991 c0 -13 75 -71 91 -71 7 0 -2 14 -21 30 -45 39 -70 54 -70
41z"/>
<path d="M6976 5810 c-44 -47 -56 -70 -37 -70 11 0 75 71 91 99 19 36 -5 23
-54 -29z"/>
<path d="M6134 5256 c-18 -14 -18 -15 -1 -22 10 -3 89 -1 177 6 87 6 168 9
179 5 12 -3 21 -2 21 3 0 16 -57 22 -209 22 -112 0 -152 -3 -167 -14z"/>
<path d="M6625 5251 c-35 -17 -37 -19 -15 -20 14 0 43 8 65 18 35 17 37 19 15
20 -14 0 -43 -8 -65 -18z"/>
<path d="M6428 5068 c-16 -5 -28 -14 -28 -19 0 -16 41 -10 67 11 22 17 23 20
7 19 -11 0 -31 -5 -46 -11z"/>
<path d="M7165 6680 c-3 -5 -1 -10 4 -10 6 0 11 5 11 10 0 6 -2 10 -4 10 -3 0
-8 -4 -11 -10z"/>
<path d="M7086 6534 c-11 -8 -16 -14 -10 -14 13 0 39 18 34 24 -3 2 -14 -2
-24 -10z"/>
<path d="M7006 6521 c-3 -5 1 -11 9 -15 18 -6 20 -27 3 -23 -14 2 -17 -35 -4
-44 10 -8 59 15 75 35 9 11 8 15 -5 20 -10 4 -21 2 -24 -5 -5 -7 -15 -1 -28
15 -11 15 -23 22 -26 17z"/>
<path d="M7100 6519 c-23 -10 -24 -11 -6 -21 18 -10 35 2 36 25 0 8 2 8 -30
-4z"/>
<path d="M7085 6410 c3 -5 8 -10 11 -10 2 0 4 5 4 10 0 6 -5 10 -11 10 -5 0
-7 -4 -4 -10z"/>
<path d="M7010 6400 c0 -5 5 -10 11 -10 5 0 7 5 4 10 -3 6 -8 10 -11 10 -2 0
-4 -4 -4 -10z"/>
<path d="M1969 3249 c17 -30 35 -61 40 -69 5 -8 13 -12 17 -8 9 9 -57 120 -75
126 -9 3 -2 -17 18 -49z"/>
<path d="M2957 2328 c-26 -81 -50 -160 -53 -175 l-6 -28 103 1 c57 1 104 5
106 10 2 5 -21 83 -50 174 l-53 165 -47 -147z"/>
<path d="M6146 1060 c-20 -55 -84 -160 -124 -203 l-26 -27 22 -22 22 -22 37
44 c21 24 50 63 65 87 l28 43 116 0 116 0 -6 -27 c-4 -16 -22 -60 -41 -99 -40
-82 -130 -174 -208 -212 -26 -13 -47 -26 -47 -30 0 -4 9 -17 18 -30 l18 -24
60 35 c132 78 203 174 255 349 29 99 26 102 -132 99 -114 -2 -121 -1 -114 16
19 45 17 60 -7 66 -12 4 -25 7 -29 7 -3 0 -13 -23 -23 -50z"/>
<path d="M5021 1038 c-12 -47 -50 -148 -56 -148 -1 0 -44 20 -96 44 l-94 44
-13 -25 c-8 -14 -11 -27 -8 -31 4 -3 43 -24 88 -47 45 -23 83 -46 85 -52 11
-33 -160 -184 -234 -207 -28 -9 -29 -27 -3 -51 19 -17 22 -16 88 23 60 35 142
110 199 179 l18 23 78 -61 79 -62 21 21 21 22 -25 26 c-13 14 -52 46 -86 70
l-62 44 19 44 c10 24 27 74 38 110 l20 65 -31 10 c-16 6 -31 11 -32 11 0 0 -7
-24 -14 -52z"/>
<path d="M3463 1063 l-113 -4 0 -31 0 -31 225 5 c124 3 225 3 225 1 0 -11 -71
-100 -109 -137 l-40 -39 21 -30 22 -31 56 62 c31 35 75 94 99 133 40 68 41 72
25 90 -18 20 -65 21 -411 12z"/>
<path d="M6873 1053 l-163 -3 0 -30 0 -30 145 0 c93 0 145 -4 145 -10 0 -24
-63 -133 -110 -189 -46 -56 -140 -130 -219 -173 -31 -17 -31 -18 -15 -43 9
-14 20 -25 24 -25 17 0 166 105 215 151 l53 50 95 -102 95 -101 26 17 26 17
-41 47 c-22 25 -69 73 -104 106 l-64 60 56 113 57 114 -25 19 c-13 10 -26 18
-29 17 -3 -2 -78 -4 -167 -5z"/>
<path d="M4052 993 l3 -28 215 0 215 0 3 28 3 27 -221 0 -221 0 3 -27z"/>
<path d="M5525 955 c-19 -15 -18 -17 18 -90 33 -68 39 -75 57 -65 10 5 22 15
25 20 6 10 -63 150 -74 150 -3 0 -15 -7 -26 -15z"/>
<path d="M5736 898 c-13 -115 -26 -149 -76 -199 -35 -35 -63 -51 -116 -69 -38
-12 -70 -24 -72 -25 -7 -6 23 -55 34 -55 26 0 130 43 164 68 74 53 104 109
126 232 8 51 14 94 11 96 -2 2 -17 7 -34 10 l-30 6 -7 -64z"/>
<path d="M3567 849 c-9 -142 -38 -190 -140 -233 -38 -15 -38 -16 -21 -41 9
-14 19 -25 23 -25 4 0 36 17 71 39 49 29 70 50 93 91 28 48 30 60 31 159 l1
106 -26 1 c-26 1 -26 1 -32 -97z"/>
<path d="M5397 908 c-16 -12 -14 -18 19 -83 21 -38 38 -71 40 -73 2 -3 42 15
52 23 5 4 -37 84 -60 118 -22 31 -27 32 -51 15z"/>
<path d="M2971 781 c-26 -26 -27 -53 -3 -74 28 -25 69 -21 88 8 15 23 15 27 0
50 -9 14 -20 25 -25 25 -5 0 -16 3 -24 6 -9 3 -25 -4 -36 -15z"/>
<path d="M7456 784 c-34 -34 -9 -94 39 -94 53 0 68 82 18 101 -33 12 -39 12
-57 -7z"/>
<path d="M4004 666 c-3 -8 -4 -23 -2 -33 3 -17 22 -18 271 -21 l267 -3 0 35 0
36 -265 0 c-222 0 -267 -2 -271 -14z"/>
</g>
</svg>
